<svg xmlns="http://www.w3.org/2000/svg" viewBox="0 0 100 100" width="100" height="100" fill="#ff9900">
  <!-- Plate -->
  <circle cx="50" cy="50" r="40" stroke="#333" stroke-width="2" fill="#fff" />

  <!-- Sun rays -->
  <line x1="50" y1="20" x2="50" y2="30" stroke="#ff9900" stroke-width="2" />
  <line x1="50" y1="80" x2="50" y2="70" stroke="#ff9900" stroke-width="2" />
  <line x1="20" y1="50" x2="30" y2="50" stroke="#ff9900" stroke-width="2" />
  <line x1="80" y1="50" x2="70" y2="50" stroke="#ff9900" stroke-width="2" />

  <!-- Realistic Rice -->
  <circle cx="32" cy="30" r="4" fill="#f8e71c" />
  <circle cx="70" cy="28" r="5" fill="#f8e71c" />
  <circle cx="50" cy="50" r="4" fill="#f8e71c" />
  <circle cx="30" cy="70" r="5" fill="#f8e71c" />
  <circle cx="70" cy="72" r="4" fill="#f8e71c" />

  <!-- Realistic Vegetables -->
  <path d="M35 45 C 32 50, 34 55, 37 60 Q 39 55, 41 50 Q 42 45, 40 40 Z" fill="#4caf50" />
  <path d="M65 55 C 68 50, 66 45, 63 40 Q 61 45, 59 50 Q 58 55, 60 60 Z" fill="#ff9800" />

  <!-- Realistic Spoon -->
  <path d="M65 70 C 63 75, 60 75, 55 73 Q 52 71, 52 68 L 48 50 L 60 52 Q 63 54, 65 60 Z" fill="#a67c52" />
  <line x1="55" y1="73" x2="50" y2="48" stroke="#a67c52" stroke-width="2" />

  <!-- MDM Text -->
  <text x="50" y="88" font-family="Arial" font-size="8" fill="#333" text-anchor="middle">MDM</text>
</svg>
